<svg version="1.0" xmlns="http://www.w3.org/2000/svg" width="850.667" height="850.667" viewBox="0 0 638 638"><path d="M0 320.5V571h638V70H0v250.5zm629-17V529H9V78h620v225.5zm-413 240c0 .9-.9 1.5-2.5 1.5s-2.5-.6-2.5-1.5.9-1.5 2.5-1.5 2.5.6 2.5 1.5zm160 7.5c0 9-.8 10.8-3.7 7.9-.8-.8-1.3-.8-1.7 0-1 1.5-5.1 1.4-6.4-.2-2.1-2.5-2.5-6.6-.7-9.3 1.4-2.1 2.3-2.5 5.1-2.2 3.2.4 3.4.2 3.4-2.4 0-2.1.5-2.8 2-2.8 1.9 0 2 .7 2 9zm55 0c0 8.3-.1 9-2 9s-2-.7-2-9 .1-9 2-9 2 .7 2 9zm-257-1.1c0 8.2-1.3 10.1-7 10.1-2.9 0-4.3-.6-5.4-2.2-2.2-3.1-2-3.8.9-3.8 1.4 0 2.5.4 2.5 1 0 .5.9 1 2 1 1.8 0 2-.7 2-6.5 0-6.3.1-6.5 2.5-6.5s2.5.2 2.5 6.9zm96-4.9c0 1.7-.7 2-4 2-2.9 0-4 .4-4 1.5 0 1 1.1 1.5 3.5 1.5 2.8 0 3.5.4 3.5 2s-.7 2-3.5 2c-3.2 0-3.5.2-3.5 3 0 2.5-.4 3-2.5 3-2.5 0-2.5-.1-2.5-8.5V543h6.5c5.8 0 6.5.2 6.5 2zm53-.5c0 .9.7 1.8 1.5 2.1.8.4 1.5 1.2 1.5 2s-.7 1.4-1.5 1.4c-.9 0-1.5.9-1.5 2.4 0 1.4.7 3.1 1.5 4 2.5 2.4 1.8 3.8-1.7 3.4-3.2-.3-3.3-.5-3.6-5.1-.2-2.6-.7-4.7-1.3-4.7-.5 0-.9-.7-.9-1.5s.4-1.5.9-1.5 1.3-.9 1.6-2c.7-2.3 3.5-2.7 3.5-.5zm71 1.5c0 2.7.3 3 3 3s3-.3 3-3 .3-3 3-3h3v17h-3c-2.8 0-3-.3-3-3.5s-.2-3.5-3-3.5-3 .3-3 3.5c0 3.1-.3 3.5-2.5 3.5-2.5 0-2.5-.1-2.5-8.5s0-8.5 2.5-8.5c2.1 0 2.5.5 2.5 3zm-211.8 5.7c.2 3.5.7 4.8 1.8 4.8s1.6-1.3 1.8-4.8c.3-4.2.5-4.7 2.8-4.7s2.4.3 2.4 6.5c0 5.8-.2 6.5-2 6.5-1.1 0-2-.5-2-1 0-.7-.6-.7-1.9 0-5.3 2.8-8.1.2-8.1-7.4 0-4.2.2-4.6 2.4-4.6 2.3 0 2.5.5 2.8 4.7zM207 549c.5 1 1 3.9 1 6.4 0 4.2-.2 4.6-2.5 4.6s-2.5-.3-2.5-5.1c0-4.3-.3-5-1.7-4.7-1.4.2-1.9 1.5-2.1 5.1-.3 4.2-.5 4.7-2.8 4.7s-2.4-.3-2.4-6.4v-6.3l6-.1c4.9-.1 6.2.3 7 1.8zm9 4.5c0 6.3-.1 6.5-2.5 6.5s-2.5-.2-2.5-6.5.1-6.5 2.5-6.5 2.5.2 2.5 6.5zm16.1-4.9c2 2.4 1.6 8.4-.6 10-2.8 2.1-8.2 1.7-10.5-.6-2.4-2.4-2.6-6.7-.3-9.2 2.1-2.3 9.5-2.5 11.4-.2zm13.9.4c0 1.2-.8 2-2.2 2.2-1.9.2-2.4 1-2.6 4.5-.3 3.5-.7 4.3-2.3 4.3-1.7 0-1.9-.7-1.9-6.3v-6.4l4.5-.1c3.7 0 4.5.3 4.5 1.8zm36-.4c0 .8-1.1 1.9-2.5 2.4-2.1.8-2.5 1.6-2.5 5 0 3.6-.2 4-2.5 4-2.4 0-2.5-.2-2.5-6.4v-6.4h5c3.6 0 5 .4 5 1.4zm14.2.1c2.4 2.1 2.3 6.8-.2 9.3-2 2-7.4 2.7-9.6 1.2-3.3-2.2-3.9-7.6-1.2-11 1.5-1.8 8.8-1.5 11 .5zm17.6 5c.3 5.7.1 6.3-1.7 6.3-1.7 0-2-.8-2.3-4.7-.2-3.6-.7-4.9-2-5.1-1.5-.3-1.8.4-1.8 4.7 0 4.8-.2 5.1-2.5 5.1-2.4 0-2.5-.2-2.5-6.4v-6.4l6.3.1 6.2.2.3 6.2zm27.6-5.1c.9.8 1.6 2.4 1.6 3.5 0 1.6-.7 1.9-5 1.9-2.8 0-5 .5-5 1 0 1.7 3.1 2.4 5.1 1.2 2.6-1.6 4.9-1.5 4.9.3 0 3.4-8.9 4.8-12.2 1.8-2.4-2.2-2.5-8.8 0-10.2 2.6-1.6 8.9-1.3 10.6.5zm17.4 5.1c.3 5.7.1 6.3-1.7 6.3-1.7 0-2-.8-2.3-4.7-.2-3.6-.7-4.9-2-5.1-1.5-.3-1.8.4-1.8 4.7 0 4.8-.2 5.1-2.5 5.1-2.4 0-2.5-.2-2.5-6.4v-6.4l6.3.1 6.2.2.3 6.2zm63-5.5c.7.7 1.2 2.2 1.2 3.5 0 2.1-.5 2.3-4.5 2.3-3.3 0-4.5.4-4.5 1.5 0 1.7 3.5 2.1 4.5.5 1-1.5 4.5-1.2 4.5.5 0 3.4-7.9 4.7-11.8 1.9-2.7-1.8-3-6.9-.5-9.6 1.9-2.1 9.2-2.5 11.1-.6zm26.2.8c1.5 2.7 1.2 6.2-.6 8.9-1.4 1.9-2.3 2.2-5 1.8-3.2-.5-3.4-.4-3.4 2.4 0 2.2-.5 2.9-2 2.9-1.9 0-2-.7-2-8.9v-8.9l6-.1c4.9 0 6.1.3 7 1.9zm16.4.2c2.7 3.9 2 4.8-3.5 4.8-3.6 0-4.9.4-4.7 1.2.6 1.6 4.8 2.3 4.8.9 0-.6 1.1-1.1 2.5-1.1 2.9 0 3.1.7.8 3.2-3.8 4.2-13.3 1-13.3-4.5 0-4.3 2.7-6.7 7.5-6.7 3.4 0 4.7.5 5.9 2.2zm13.6-.1c0 1.2-.7 1.9-1.9 1.9-2.1 0-3.1 1.9-3.1 6.1 0 2.2-.5 2.9-2 2.9-1.8 0-2-.7-2-6.4v-6.4h4.5c3.8 0 4.5.3 4.5 1.9z"/><path d="M70.8 271.3l-.3 157.3-2.5 4.9c-3.1 6-8.8 9.3-17.5 10.2l-5.8.6.6 9.1c.3 5 1.2 15.6 1.8 23.5l1.2 14.4 13.6-.6c14.9-.6 22-2.2 32-7 9-4.3 19.7-15 23.8-23.7 6.6-14.1 6.3-4 6.3-183.4V114H71l-.2 157.3zm108.2-5.8V417l26.8-.2 26.7-.3.3-67.3.2-67.2h83v-48h-83v-71l53.8-.2 53.7-.3.3-24.3.2-24.2H179v151.5zm196 0V417h53V286h112l.2 65.2.3 65.3h53l.3-151.3.2-151.2h-54v120l-55.7-.2-55.8-.3-.3-59.8-.2-59.7h-53v151.5zm-7.3 285.1c-1.1 1.1-.8 5.2.3 5.9 1.7 1 4.1-1.6 3.8-3.9-.3-2.1-2.8-3.3-4.1-2zm-143.5 2.6c.2 2.5.8 3.3 2.3 3.3 1.6 0 2-.7 2-3 0-2.4-.5-3.1-2.3-3.3-2.1-.3-2.3 0-2 3zm64.2-1.8c-1 2.6.1 5.1 2.1 5.1 1.5 0 2.1-.8 2.3-3.3.3-2.7 0-3.2-1.8-3.2-1.1 0-2.3.6-2.6 1.4zm45.6-.9c-1.1 1.3-.9 1.5 1.5 1.5 1.6 0 2.5-.5 2.3-1.2-.7-1.9-2.4-2-3.8-.3zm80.7-.8c-1.4 1.3-.6 2.3 1.9 2.3 2.2 0 2.5-.2 1.4-1.5-1.4-1.6-2.3-1.9-3.3-.8zm24.8 2.4c-.9 2.7 1.9 5.9 3.6 4.2 1.5-1.5.7-5.7-1.3-6.1-1-.2-1.9.6-2.3 1.9zm17.8-2.4c-2.2.8-1.4 2.3 1.2 2.3 1.4 0 2.5-.4 2.5-.9 0-1.1-2.1-1.9-3.7-1.4z"/></svg>