<svg width="148" height="40" fill="none" xmlns="http://www.w3.org/2000/svg"><path d="M57.605 17.39a3.403 3.403 0 00-1.505-1.45c-.639-.347-1.396-.52-2.272-.52-1.514 0-2.727.501-3.64 1.504-.912.986-1.368 2.308-1.368 3.969 0 1.77.475 3.156 1.423 4.16.967.985 2.29 1.477 3.968 1.477 1.15 0 2.117-.292 2.901-.876.803-.584 1.387-1.423 1.752-2.517h-5.939v-3.449h10.18v4.352c-.346 1.167-.939 2.253-1.778 3.256-.821 1.004-1.87 1.816-3.147 2.436-1.277.62-2.719.93-4.324.93-1.898 0-3.595-.41-5.09-1.231a9.086 9.086 0 01-3.476-3.476c-.821-1.477-1.232-3.165-1.232-5.062 0-1.898.41-3.585 1.232-5.063a8.844 8.844 0 013.475-3.476c1.478-.84 3.166-1.259 5.063-1.259 2.3 0 4.233.557 5.802 1.67 1.587 1.112 2.636 2.654 3.147 4.625h-5.172zm12.773.41a6.044 6.044 0 012.052-1.97 5.214 5.214 0 012.737-.74v4.954H73.88c-1.167 0-2.043.256-2.627.767-.584.492-.876 1.368-.876 2.627v7.088h-4.68V15.255h4.68V17.8zm13.977 12.945c-1.496 0-2.847-.32-4.05-.958a7.13 7.13 0 01-2.82-2.737c-.675-1.186-1.012-2.572-1.012-4.16 0-1.569.347-2.946 1.04-4.132a7.03 7.03 0 012.846-2.764c1.204-.639 2.554-.958 4.05-.958s2.846.32 4.05.958a7.032 7.032 0 012.847 2.764c.693 1.186 1.04 2.563 1.04 4.132 0 1.57-.356 2.956-1.068 4.16a7.039 7.039 0 01-2.873 2.737c-1.204.638-2.554.958-4.05.958zm0-4.05c.894 0 1.65-.33 2.271-.986.638-.657.958-1.596.958-2.819 0-1.222-.31-2.162-.93-2.818a2.922 2.922 0 00-2.245-.986c-.912 0-1.669.329-2.271.986-.602.638-.903 1.578-.903 2.818 0 1.223.292 2.162.876 2.82.602.656 1.35.984 2.244.984zm32.394-11.44l-4.133 15.27h-5.172l-2.408-9.906-2.49 9.907h-5.145l-4.16-15.271h4.68l2.162 10.92 2.572-10.92h4.953l2.6 10.865 2.135-10.865h4.406zm9.447 3.886h-2.517v11.385h-4.68V19.14h-1.697v-3.886h1.697v-.438c0-1.879.538-3.302 1.615-4.27 1.076-.984 2.654-1.477 4.734-1.477.346 0 .602.01.766.028v3.968c-.893-.055-1.523.073-1.888.383s-.547.866-.547 1.67v.136h2.517v3.886zm17.798-3.886l-9.578 22.523h-5.036l3.503-7.772-6.212-14.751h5.227l3.531 9.551 3.502-9.551h5.063z" fill="#fff"/><path d="M23.157 12.632a7.368 7.368 0 017.367-7.368h7.368v7.368a7.368 7.368 0 11-14.736 0z" fill="#FF6D35"/><path d="M30.524 37.677a7.368 7.368 0 01-7.368-7.368v-7.368h7.368a7.368 7.368 0 110 14.736z" fill="#5CC97B"/><path d="M20.835 20.652c0-8.177-6.126-14.805-13.684-14.805V30.02c0 4.089 3.064 7.403 6.842 7.403 3.779 0 6.842-3.314 6.842-7.403v-9.369z" fill="#3D96F4"/></svg>